/* XPM */
static char *_a03bd7802e24300be2d97118c8477cdZ4e6mIV3pq7OYI1Y[] = {
/* columns rows colors chars-per-pixel */
"40 40 160 2 ",
"   c None",
".  c #2C1F23",
"X  c #351F26",
"o  c #3A1E26",
"O  c #2D2024",
"+  c #392028",
"@  c #3B262B",
"#  c #3F3B3C",
"$  c #451F24",
"%  c #4E1C2A",
"&  c #551D2D",
"*  c #621E2E",
"=  c #761E33",
"-  c #7C1D36",
";  c #412129",
":  c #54242F",
">  c #5D232C",
",  c #4E2C31",
"<  c #592A35",
"1  c #583136",
"2  c #623D2A",
"3  c #6A2232",
"4  c #702530",
"5  c #752C34",
"6  c #7A2739",
"7  c #6E363E",
"8  c #70353D",
"9  c #494724",
"0  c #564722",
"q  c #52433E",
"w  c #675225",
"e  c #6A5424",
"r  c #6B4135",
"t  c #7A6B2C",
"y  c #77632B",
"u  c #543E41",
"i  c #653C46",
"p  c #733F4A",
"a  c #773A46",
"s  c #484848",
"d  c #5C5657",
"f  c #5C5C5C",
"g  c #5A5A57",
"h  c #6F4446",
"j  c #774545",
"k  c #7F4343",
"l  c #7C444C",
"z  c #784B52",
"x  c #725459",
"c  c #725B5D",
"v  c #666766",
"b  c #657578",
"n  c #7C7979",
"m  c #871D37",
"M  c #931F3B",
"N  c #A21E33",
"B  c #852A35",
"V  c #8C2A35",
"C  c #8C2339",
"Z  c #932A36",
"A  c #9D2D3B",
"S  c #96283B",
"D  c #8D313D",
"F  c #9D323E",
"G  c #A4213A",
"H  c #A22B39",
"J  c #AC2C3B",
"K  c #AA213B",
"L  c #B32B3C",
"P  c #B7253A",
"I  c #AE303E",
"U  c #CB2B3E",
"Y  c #C5273D",
"T  c #816023",
"R  c #856F28",
"E  c #987A27",
"W  c #A77F25",
"Q  c #8F3B46",
"!  c #843B46",
"~  c #913142",
"^  c #B52241",
"/  c #A13541",
"(  c #BC3A4A",
")  c #CB2641",
"_  c #C22D42",
"`  c #D92742",
"'  c #D22E42",
"]  c #D82943",
"[  c #C83445",
"{  c #D33548",
"}  c #E22A44",
"|  c #E72E49",
" . c #F12F48",
".. c #F5334A",
"X. c #FD344C",
"o. c #FF3D55",
"O. c #864249",
"+. c #8B4C53",
"@. c #914D55",
"#. c #9B4A54",
"$. c #89575C",
"%. c #89595F",
"&. c #9F515C",
"*. c #AB4A57",
"=. c #895F65",
"-. c #8C646C",
";. c #8A6B72",
":. c #837476",
">. c #837A7C",
",. c #887577",
"<. c #CF4658",
"1. c #C64658",
"2. c #DD4356",
"3. c #FF4157",
"4. c #FC435A",
"5. c #DC4D61",
"6. c #9F8B3F",
"7. c #AF8D29",
"8. c #A78025",
"9. c #B08D29",
"0. c #CDAF2F",
"q. c #DDA628",
"w. c #DDCB4E",
"e. c #ECDE73",
"r. c #E7DA71",
"t. c #827F80",
"y. c #997E84",
"u. c #7C8B8E",
"i. c #848384",
"p. c #878989",
"a. c #8E8E8E",
"s. c #96898B",
"d. c #919292",
"f. c gray60",
"g. c #A68084",
"h. c #A19597",
"j. c #8CB0B2",
"k. c #98B4B5",
"l. c #ABAAAB",
"z. c #A6A5A5",
"x. c #B4ACAD",
"c. c #B3AFB0",
"v. c gray71",
"b. c #BCBCBC",
"n. c #BFB0B3",
"m. c #C1BFBF",
"M. c #8BC6C5",
"N. c #9BDADB",
"B. c #B4F6F6",
"V. c #C6C7C7",
"C. c #CCCDCD",
"Z. c #D2D4D3",
"A. c #D5DAD9",
"S. c #DADCDC",
"D. c #D6FFFF",
"F. c #E2E5E5",
"G. c #E9ECEC",
"H. c #EFF1F1",
"J. c #F4F4F4",
"K. c #FEFEFE",
/* pixels */
"                                                                                ",
"                                                                                ",
"                                                                                ",
"                                                                                ",
"                                      z.i.                                      ",
"                                    b.J.V.n                                     ",
"                                  i.J.K.S.z.g                                   ",
"                                v F.K.K.J.Z.f.s                                 ",
"                                d.F.F.F.F.C.z.v                                 ",
"                              1 l O.O.O.O.! 7 < ;                               ",
"                              u =.%.$.$.$.$.z i @                               ",
"                              p.J.H.l.,.:.l.Z.l.g                               ",
"                              a.K.n.*.Q B ~ h.v.f                               ",
"                              d.C.#.&.k.j.! 6 a.f                               ",
"                              d.b.! u.D.B.b * t.f                               ",
"                              d.m.A -.N.M.x 4 i.f                               ",
"                              a.H.g.L p i C ;.z.f                               ",
"                              a.K.H.g.l p y.Z.v.f                               ",
"                              d x.G.F.A.A.S.V.>.#                               ",
"                              5 ( @.@.+.+.+.a 6 %                               ",
"                            8 D L U Y Z Z P N = 6 5                             ",
"                          7 <.F :.h.c 1.[ x >.d A _ :                           ",
"                        7 <.3./ C.K.s.{ ' s.Z.p.F | S :                         ",
"                        1.4.X.A c.S.:.' ' s.b.n I X.) C                         ",
"                      , 5.o.X.Y a f q ' ' q g Q ..X.` M +                       ",
"                      , 2.X. .G & 9 y ' Y y 9 4 ' X.` M o                       ",
"                        [ X.} =   t 6.J J 6.t   H X.) m                         ",
"                        V X.} =   7.r.k k r.7.  H  .^ *                         ",
"                        B ..) 3   9.e.j j e.9.  V ` ^ &                         ",
"                        > U K +   7.e.h h e.7.  $ P M ;                         ",
"                          L G X   R w.r r w.R   $ G -                           ",
"                          > m X   0 0.2 2 0.0   o - %                           ",
"                          . o       E T T E       o O                           ",
"                                    e q.q.e                                     ",
"                                      8.W                                       ",
"                                      w w                                       ",
"                                                                                ",
"                                                                                ",
"                                                                                ",
"                                                                                "
};
