/* XPM */
static char *a1e3aaa5895343c9ebd177aee4801a25VwB5Yxw6mOFtOYFC[] = {
/* columns rows colors chars-per-pixel */
"40 40 101 2 ",
"   c #000012",
".  c #000013",
"X  c #000014",
"o  c #010014",
"O  c #000015",
"+  c #010015",
"@  c #020015",
"#  c #000016",
"$  c #010017",
"%  c #020016",
"&  c #030116",
"*  c #030117",
"=  c #040217",
"-  c #020018",
";  c #030119",
":  c #02001A",
">  c #040218",
",  c #050318",
"<  c #050319",
"1  c #04021A",
"2  c #05031B",
"3  c #060419",
"4  c #06041A",
"5  c #07051B",
"6  c #04011C",
"7  c #06041C",
"8  c #07051D",
"9  c #08061B",
"0  c #08061C",
"q  c #09071C",
"w  c #09071D",
"e  c #08061E",
"r  c #09071F",
"t  c #0A081D",
"y  c #0A081E",
"u  c #0B091F",
"i  c #0C0A1F",
"p  c #080520",
"a  c #0A0820",
"s  c #0B0921",
"d  c #0C0A20",
"f  c #0D0B20",
"g  c #0D0B21",
"h  c #0C0A22",
"j  c #0D0B23",
"k  c #0E0C21",
"l  c #0E0C24",
"z  c #0F0D25",
"x  c #100E24",
"c  c #110F25",
"v  c #100E26",
"b  c #110F27",
"n  c #121025",
"m  c #121028",
"M  c #131129",
"N  c #141228",
"B  c #151328",
"V  c #151329",
"C  c #14122A",
"Z  c #15132B",
"A  c #161429",
"S  c #16142A",
"D  c #17152B",
"F  c #16142C",
"G  c #17152D",
"H  c #18162C",
"J  c #19172D",
"K  c #18162E",
"L  c #1A182E",
"P  c #1B192F",
"I  c #1C1A2F",
"U  c #1A1830",
"Y  c #1C1A30",
"T  c #1D1B31",
"R  c #1C1A32",
"E  c #1D1B33",
"W  c #1F1D33",
"Q  c #201E34",
"!  c #211F34",
"~  c #211F35",
"^  c #201E36",
"/  c #211F37",
"(  c #222036",
")  c #232137",
"_  c #242237",
"`  c #242238",
"'  c #252339",
"]  c #24223A",
"[  c #27253B",
"{  c #28263E",
"}  c #2D2B43",
"|  c #2F2D45",
" . c #302E44",
".. c #302E46",
"X. c #333147",
"o. c #333149",
"O. c #343248",
"+. c #363449",
"@. c #424058",
"#. c #48465C",
"$. c #A5A3B8",
/* pixels */
"# K b # - 1 # 1 - - 1 1 - - 1 # # . 1 . y O.e # # # - - - - - - # 4 # b ..# 4 # ",
"h R Z 1 1 1 # # 1 # # # # # 1 - # # 1 # . e . 4 # - - - - - - - S R . # 4 # # 1 ",
"# 8 8 # # - - 1 # # 1 8 1 8 1 # # # . # # 1 9 # - - - - - - - - e Z # 4 . e . . ",
"# # - # # - - - 1 # - - # # - 1 # # # # 1 . y . - - - - - - - - * # # 1 # 1 # 1 ",
"8 - - 1 - # - # 1 # 8 h 8 # # 8 ~ 1 # # 4 . # # - - - - - - - - 4 . 1 # # . # 1 ",
"# # # - - - - - # # l U Z 8 # - ' e * . 4 1 # # - - - - - - - - # # 4 4 # 1 # . ",
"8 1 1 1 1 - # # - # 1 e 1 # - 1 # 1 e . . # # 1 - - - - - - - - # 1 # . . 1 9 1 ",
"# - # # - - # - # - - - # 1 8 # 1 1 . # e # # # - - - - - - - - # 1 # # 9 . 1 # ",
"- - # # 1 - # 1 - - - - - - - # . # # 1 1 1 4 # - - - - - - - - # # # # # # # # ",
"# # # # # 1 1 # # # - - - - - - 4 4 # # Z K 1 # - - - - - - - - b i 1 # # # * # ",
"1 # 1 e - 1 8 1 # # - - - - - - . # 1 # L R . 4 - - - - - - - - D b 4 # # # # # ",
"# # - # - Z Z # - - - - - - - - 1 1 # # Q ( # # - - - - - - - - h e * # # # # # ",
"- 8 1 # l o...1 - - - - - - - - . 1 # # # . . 1 - - - - - - - - # # # # # # # # ",
"# # # # 8 K F # - - - - - - - - 4 # . 1 1 1 e # - - - - - - - - # # * # # # # 1 ",
"8 - - 8 1 # # 1 - - - # - - 1 1 # . 1 1 # # # # - - - - - - - - 1 * # # # # * * ",
"# - # # - 1 1 - # # # # - - 1 8 L e 4 . # y . # - - - - - - - - # # # # * # # # ",
"- - 1 - # # - - - # 8 # 1 # 8 1 ~ e 1 . # 4 . 4 - - - - - - - - 1 . 1 # . 1 4 # ",
"- # # # 1 - # - - # e # # # 1 - # # 1 # # 4 1 # - - - - - - - - # . . e # # . # ",
"# 8 - # - - # - # # - # # - 8 # # 1 # 1 # # 1 # - - - - - - - - e n . * . 1 # 1 ",
"# Z M # # 1 - - # # # 1 - - 8 # 1 # . # # # # # - - - - - - - # S Q 4 1 4 # # # ",
"# F Z - # 1 - - 1 - - e - # - 1 . . 4 # e L h # - - - - - - - # y h # y R # # 1 ",
"1 e 1 # 1 - # - 8 # # # # - # - 1 . 4 # h L e - - - - - - - - - . 1 1 9 L 1 1 1 ",
"1 # # - 1 - # - 1 # l # - 8 - # e . . # - 1 # # - - - - - - - - 1 K K # 4 # # . ",
"- - - - # # - - # e | b - - # 1 . 1 1 # # # 8 1 - - - - - - - - # Z K 1 # # # 9 ",
"# 1 - # # 1 - # - # h 1 # 1 # e # - - # # - - - - # 8 - # 1 # # # # # # # # - - ",
"# # - - - # # - - # 8 - - 8 # # # - - - # - - # - 1 - # # # 1 # # # # # # # - - ",
"# # - 1 # # - 1 # - - # # - - 1 - - - - # - - # 1 h . # 4 # # . # # - - - - - - ",
"1 # # - # - 1 - - 1 # # # # 1 # - - - - - - - - { ' y . 1 # # # # # - - - - - - ",
"- # # # - 1 - # - - # - 8 - - # 1 - - - - - - - . # # 1 Z S * . - - - - - - - - ",
"# - # # 1 1 - 8 1 - - 1 # # e Z 8 1 - - - - # # e # 1 # h Z 1 1 - - - - - - - - ",
"# 1 # # 8 # e ' b 1 8 - # # e ~ p 6 - - - - # # . . # # 4 e 1 # - - - - - - - 1 ",
"- 8 # # 8 # M @.~ - # # 1 8 # e 8 - # # 1 - - 1 1 9 # # . . 9 # - - - - 1 - - - ",
"- - # - - 8 e e e 1 - - - - - - . # # # . 1 # 1 # 1 . e # . - # # # # . 4 . # # ",
"8 1 - - # # # 8 # # # # # - 1 4 e * 9 n 4 . 4 . # . 4 # # 4 1 - e . e L y 1 e i ",
"e - # - 1 e U } 1 1 1 1 - # # # 1 k +.$.9 # # h 4 4 ' 1 1 # # # . . # [ h e b #.",
"- # - - # # - s # # # # - - - # 1 _ I _ # y # . # 1 ( 1 # # - 1 . y e # 4 # # b ",
"# # - - - 1 1 1 h e 1 - - 1 1 # # # # . . # # # # # e . # # 1 # 4 . . 4 # 1 # # ",
"1 1 - # # # - # R Z s - - - - # 1 # 1 # 1 # . 1 1 4 . # # . s - . e 1 # . 4 # # ",
"# # - 1 8 8 - # s 8 # # # - - # Z S . * . i # # . # # 1 1 1 F Z 4 . e # X.y 4 4 ",
"- # # - - # # 1 # - - 1 1 1 - # K ~ * * # Z K 1 # 1 # . 1 1 Z h 1 # . 4 y y # # "
};
