/* XPM */
static char *_0519af55bb14d47b0d4f9d0027205c0Mt8itQr5ZlyXgfPt[] = {
/* columns rows colors chars-per-pixel */
"40 40 186 2 ",
"   c black",
".  c #ECD669",
"X  c #E9D983",
"o  c #BEEBFF",
"O  c #DFDB8D",
"+  c #DEE5B7",
"@  c #F6CE1E",
"#  c #F6CE2C",
"$  c #DEDDEE",
"%  c #F2D79D",
"&  c #F6CF26",
"*  c #F4CC28",
"=  c #97ABFF",
"-  c #F2D142",
";  c #E8C146",
":  c #F5CE23",
">  c #F4C525",
",  c #F3DB78",
"<  c #FCC900",
"1  c #FFDE00",
"2  c #DEAF6C",
"3  c #F5DE6C",
"4  c #FF5500",
"5  c #DAA051",
"6  c #F5E272",
"7  c #FFD800",
"8  c #D89F53",
"9  c #F3EBB8",
"0  c #FCDD11",
"q  c yellow",
"w  c #E0A56E",
"e  c #F7DD31",
"r  c #EEBA21",
"t  c #D2D5F0",
"y  c #F2DC4B",
"u  c #BAECFF",
"i  c #E09A3A",
"p  c #F0CB35",
"a  c #EAA827",
"s  c #C16E75",
"d  c #A75E98",
"f  c #EAB731",
"g  c #EFB41C",
"h  c #C16066",
"j  c #C2645B",
"k  c #AD397C",
"l  c #D06F4F",
"z  c #F2D142",
"x  c #F5D030",
"c  c #F7CF2E",
"v  c #F3D140",
"b  c #F4CF35",
"n  c #F7CE1D",
"m  c #F7CC15",
"M  c #F7C913",
"N  c #F7C913",
"B  c #F8CC16",
"V  c #F7CF21",
"C  c #F4CF3B",
"Z  c #F6D033",
"A  c #F8CD19",
"S  c #F6C212",
"D  c #F6C412",
"F  c #F7CC1B",
"G  c #F0CB32",
"H  c #F0D254",
"J  c #F8CE1B",
"K  c #F5CA1B",
"L  c #E0BD60",
"P  c #F4D029",
"I  c #F7C713",
"U  c None",
"Y  c #F7C814",
"T  c #F0C22B",
"R  c #F7CE19",
"E  c #FBB52B",
"W  c #F7C71A",
"Q  c #F3C31C",
"!  c #F9D319",
"~  c #FCB32B",
"^  c #F8C720",
"/  c #F4C418",
"(  c #AC53BD",
")  c #FADE20",
"_  c #F9AC29",
"`  c #FAAF2A",
"'  c #F9CE24",
"]  c #F4CA1E",
"[  c #B54F92",
"{  c #FADE26",
"}  c #F8D321",
"|  c #F7B02D",
" . c #F9B12E",
".. c #F9D523",
"X. c #F1C422",
"o. c #F7DE34",
"O. c #FADC1D",
"+. c #F7C42B",
"@. c #F9AF2A",
"#. c #F9AC2A",
"$. c #F8C430",
"%. c #F7D31E",
"&. c #EAB32A",
"*. c #F8DA23",
"=. c #FADA1E",
"-. c #F8C32F",
";. c #F9AE2C",
":. c #FAAC2B",
">. c #FAAC2A",
",. c #F9AE2C",
"<. c #F8C032",
"1. c #F9D720",
"2. c #F0BF21",
"3. c #DA8B43",
"4. c #EDC83E",
"5. c #F5D121",
"6. c #F9D91C",
"7. c #F9D624",
"8. c #F9CB2C",
"9. c #F8CB2E",
"0. c #FAD528",
"q. c #F8D51E",
"w. c #F1BE21",
"e. c #E49C31",
"r. c #E4B03B",
"t. c #EFC028",
"y. c #F4C91D",
"u. c #F6CD1B",
"i. c #F6CC1E",
"p. c #F3C21E",
"a. c #ECB124",
"s. c #E09734",
"d. c #DC9239",
"f. c #E39E30",
"g. c #E39B32",
"h. c #DF8D3B",
"j. c #CA6259",
"k. c #F2B31A",
"l. c #F3AE20",
"z. c #F3B519",
"x. c #F5BF14",
"c. c #F5AD22",
"v. c #FCB128",
"b. c #FDB329",
"n. c #FBB128",
"m. c #F5B021",
"M. c #F6C213",
"N. c #F5B020",
"B. c #FDB228",
"V. c #FDB328",
"C. c #FBC62F",
"Z. c #F9BE2B",
"A. c #FEB328",
"S. c #F5BE14",
"D. c #FAB027",
"F. c #FDB82A",
"G. c #FCC02C",
"H. c #FCE138",
"J. c #F9D634",
"K. c #FCBC2B",
"L. c #FDB629",
"P. c #F5BD1A",
"I. c #FBB028",
"U. c #FBCC31",
"Y. c #FCE73A",
"T. c #FDEB3B",
"R. c #FBE339",
"E. c #F7C02C",
"W. c #F6C620",
"Q. c #FAB429",
"!. c #FCDD35",
"~. c #FEED3B",
"^. c #FDEC3B",
"/. c #F7CE33",
"(. c #F9AE29",
"). c #FAAE28",
"_. c #FBD835",
"`. c #FBE539",
"'. c #FCE73B",
"]. c #F7C732",
"[. c #FAAC28",
"{. c #F8C22F",
"}. c #F8B62B",
"|. c #FABD2D",
" X c #F8BE2E",
".X c white",
/* pixels */
"                                                                                ",
"                                                                                ",
"                                                                                ",
"                                                                                ",
"                                                                                ",
"                                                                                ",
"                                                                                ",
"                                                                                ",
"                                                                                ",
"                                                                                ",
"                                                                                ",
"                                                                                ",
"                                                                                ",
"                                . X z x c v o O                                 ",
"                            + @ b n m M N B V C # $                             ",
"                          % & Z A S k.l.l.z.D F G * =                           ",
"                          - H J x.c.v.b.b.n.m.M.K L ;                           ",
"                          : P I N.B.V.C.Z.A.B.U Y T >                           ",
"                        , < R S.D.F.G.H.J.K.L.E W Q 1 2                         ",
"                        3 4 ! P.I.U.Y.T.T.R.E.~ ^ / ( 5                         ",
"                        6 7 ) W._ Q.!.~.^./.(.` ' ] [ 8                         ",
"                        9 0 { } | )._.`.'.].[. ...X.q w                         ",
"                          e o.O.+.@.{.}.|. X#.$.%.&.r t                         ",
"                          y u *.=.-.;.:.>.,.<.1.2.3.i                           ",
"                            p 4.5.6.7.8.9.0.q.w.e.a s                           ",
"                            d f r.t.y.u.i.p.a.s.g h                             ",
"                                j k d.f.g.h.j.l                                 ",
"                                                                                ",
"                                                                                ",
"                                                                                ",
"                                                                                ",
"                                                                                ",
"                                                                                ",
"                                                                                ",
"                                                                                ",
"                                                                                ",
"                                                                                ",
"                                                                                ",
"                                                                                ",
"                                                                                "
};
