/* XPM */
static char *_4fd409b5dfc4b40ff2ff3c8949b4327B5g8eso2KmAWJULj[] = {
/* columns rows colors chars-per-pixel */
"40 40 204 2 ",
"   c None",
".  c #060011",
"X  c #0A0114",
"o  c #0E061B",
"O  c #120415",
"+  c #1E0B17",
"@  c #12051B",
"#  c #18051D",
"$  c #12081C",
"%  c #1D091A",
"&  c #230B1C",
"*  c #280C1D",
"=  c #32111E",
"-  c #371D1F",
";  c #1D0622",
":  c #150C21",
">  c #1C0A23",
",  c #1C1329",
"<  c #1B1226",
"1  c #250B29",
"2  c #20162D",
"3  c #26192B",
"4  c #341222",
"5  c #36162A",
"6  c #2F0E30",
"7  c #241C32",
"8  c #291D36",
"9  c #321534",
"0  c #371E32",
"q  c #292234",
"w  c #2C233C",
"e  c #2D283D",
"r  c #32263C",
"t  c #441924",
"y  c #4A1E29",
"u  c #521F2B",
"i  c #59232B",
"p  c #593B3D",
"a  c #4A2639",
"s  c #6B2A2E",
"d  c #6A3B2F",
"f  c #6E3D30",
"g  c #7A3131",
"h  c #762931",
"j  c #7A4A3D",
"k  c #2C2640",
"l  c #332B43",
"z  c #3B2D48",
"x  c #3B3545",
"c  c #3C334B",
"v  c #3E384D",
"b  c #363347",
"n  c #3D3954",
"m  c #3B3654",
"M  c #402940",
"N  c #423D4D",
"B  c #4A3546",
"V  c #563846",
"C  c #433B54",
"Z  c #443E5B",
"A  c #4B3C56",
"S  c #47404E",
"D  c #494656",
"F  c #4A4658",
"G  c #57485B",
"H  c #5B4C52",
"J  c #734D4C",
"K  c #4C4260",
"L  c #514662",
"P  c #544964",
"I  c #554D6B",
"U  c #56526A",
"Y  c #595562",
"T  c #5D5473",
"R  c #5A5972",
"E  c #5A5978",
"W  c #685669",
"Q  c #635B76",
"!  c #605F7B",
"~  c #725366",
"^  c #65626E",
"/  c #666475",
"(  c #65647B",
")  c #69627C",
"_  c #696A7B",
"`  c #726E78",
"'  c #883737",
"]  c #854239",
"[  c #8F4038",
"{  c #99453C",
"}  c #98553F",
"|  c #A0453C",
" . c #884D4D",
".. c #AB4B40",
"X. c #A94949",
"o. c #B74E44",
"O. c #AF5644",
"+. c #B95646",
"@. c #B66847",
"#. c #8B5064",
"$. c #995361",
"%. c #B66A6D",
"&. c #C04E45",
"*. c #CA5348",
"=. c #C95948",
"-. c #E55D52",
";. c #D26C4D",
":. c #CF764E",
">. c #D6734F",
",. c #DC6150",
"<. c #DE7551",
"1. c #DC7D52",
"2. c #CD674C",
"3. c #EE6954",
"4. c #E66950",
"5. c #E37752",
"6. c #E27D53",
"7. c #E97153",
"8. c #FA7057",
"9. c #D87161",
"0. c #DF8154",
"q. c #EB8555",
"w. c #ED8957",
"e. c #E48354",
"r. c #EB8171",
"t. c #6B6381",
"y. c #6C6B83",
"u. c #686885",
"i. c #726E85",
"p. c #756B8A",
"a. c #7A6A8B",
"s. c #6E728F",
"d. c #76748B",
"f. c #777586",
"g. c #786F91",
"h. c #737393",
"j. c #7B7493",
"k. c #7D7A93",
"l. c #777A91",
"z. c #827588",
"x. c #947786",
"c. c #837A98",
"v. c #887EA4",
"b. c #838596",
"n. c #8C8C96",
"m. c #83849C",
"M. c #8A8B9F",
"N. c #878996",
"B. c #91919B",
"V. c #A8929E",
"C. c #8A8AA3",
"Z. c #958FAA",
"A. c #8F90A9",
"S. c #9A97A6",
"D. c #9A9CB3",
"F. c #9E98B6",
"G. c #BD99A6",
"H. c #A097B3",
"J. c #A098B3",
"K. c #A79EAA",
"L. c #9EA0B7",
"P. c #A3A3B2",
"I. c #A6A7B8",
"U. c #B7B6BC",
"Y. c #C28D9C",
"T. c #E08B91",
"R. c #F79190",
"E. c #E48286",
"W. c #F9AA8C",
"Q. c #EB9DA2",
"!. c #D9B5B8",
"~. c #E0B4B5",
"^. c #DFC1BC",
"/. c #E4C1BF",
"(. c #ACAEC4",
"). c #BDBEC4",
"_. c #BCBFC9",
"`. c #BAB5C5",
"'. c #BFBCD4",
"]. c #CFBED2",
"[. c #C8B2C7",
"{. c #BDC0CD",
"}. c #BDC4D3",
"|. c #C6C3CA",
" X c #C9CAD6",
".X c #CFC7DD",
"XX c #C5C7D7",
"oX c #CED2D7",
"OX c #D3D4DB",
"+X c #E3CACD",
"@X c #E8C9CB",
"#X c #F9DFD0",
"$X c #F2D3CA",
"%X c #FEE4D3",
"&X c #DCDEE3",
"*X c #CDD6E1",
"=X c #DEE2E8",
"-X c #EAEAEB",
";X c #E1E3E7",
":X c #EBEEF2",
">X c #EEF1F3",
",X c #F2F4F7",
"<X c #FAFBFB",
"1X c #F7FAFA",
/* pixels */
"                                                                                ",
"                                                                                ",
"                                                                                ",
"                                                                                ",
"                                                                                ",
"                                  3 N S S S S x <                               ",
"                              x ^ n.;X-X-X-X-XoX` F e                           ",
"                            N P.1X<X,X:X:X:X:X=X*XXXk.w                         ",
"                          _ |.1X&XM./ D D D D ( m.}.XXM.c                       ",
"                        / ;X>XP.S > > ; ; @ # @ : b m.}.Z.                      ",
"                      7 U.,XN.^ U.z.9 6 1 > > @ . . : y.}.Q                     ",
"                      / ;XS.c S.1X`.9 1 @ > > . . . . , m.D.l                   ",
"                      S.OXN z.W W B # X ; 1 # & u % X . c (.F                   ",
"                    x U.` f.|.9 # * t u 1 * s ..&.s O . : m.( x                 ",
"                  D B.).Y ` K.5 t h { ] y ..2.O.+.+.= . . _ b.n.q               ",
"                  D B.).Y # 5 ' +.V  .<.<.q.1.J p ;.s O . / b.n.7               ",
"                  v f.).Y X 4 =.:.B j w.q.q.1.H p 1.o.% . / b.i.3               ",
"                  7 n P.Y X 4 =.:.+ d w.q.q.0.- - 6.o.* X Q y.c >               ",
"                  $ : p.k.: = *.4.] @.1.q.e.1.} { 3.o.% 2 g.K @                 ",
"                      v D.C + { 7.w.w.} f f @.w.q.4.' O P p.7                   ",
"                        i.A.e * { 6.w.6.@.@.e.w.5.[ & l c.c                     ",
"                          i.j.m 4 ' O.<.5.5.;.| g 3 Z j.P $                     ",
"                            b c.) l 0 i i i y 8 z p.j.l w 7                     ",
"                            @ r c.v.c.d.d.d.d.m.v.a.8 w I m                     ",
"                            h X.B l C C C C C C l V ' a n k                     ",
"                          s 9.~._ ( Z.H.J.H.F.C.! Q Y.X.y                       ",
"                          *.W.oX_ l.=X@X@X@X+X`.y.R `.r...                      ",
"                        W /.+Xi.R Q OXx.x.x.V.I.I n z.@XG.z                     ",
"                        v D.L.A ( u.P.XX_._. XZ.u.n P I.h.7                     ",
"                        e m.m.w m u.k.U U U U j.E 8 l C.E ,                     ",
"                        G  X'.I ( I.=X{._._._._.C.Z Q XXF.c                     ",
"                        2 L t.A %.R.Q.]..X.X[.T.E. .A t.L ,                     ",
"                            o t ,.8.-.#.T T $.3.8.*.4 o                         ",
"                              B ^.%X!.G   X ~ $X#XG.M                           ",
"                              l I.}.(.I     )  X}.A.r                           ",
"                              , E h.T e     l y.s.Z <                           ",
"                              : w l 7 X     X q l 7                             ",
"                                                                                ",
"                                                                                ",
"                                                                                "
};
