/* XPM */
static char *_bb3f2070bd94a20f89f6daf81e31bdczGMJo7xdxN9g42F3[] = {
/* columns rows colors chars-per-pixel */
"40 40 123 2 ",
"   c #313E5D",
".  c #34425D",
"X  c #3A425F",
"o  c #364362",
"O  c #3A4563",
"+  c #3C4965",
"@  c #3C4669",
"#  c #3E4A6A",
"$  c #404966",
"%  c #414E6D",
"&  c #45536E",
"*  c #444E71",
"=  c #455373",
"-  c #495675",
";  c #4C5A75",
":  c #4C5478",
">  c #4C5979",
",  c #525F7D",
"<  c #55637E",
"1  c #566382",
"2  c #5A6583",
"3  c #5B6985",
"4  c #5E6B8B",
"5  c #606B87",
"6  c #636D8A",
"7  c #697792",
"8  c #6C7A95",
"9  c #6D7D9A",
"0  c #717F9B",
"q  c #6C809B",
"w  c #74829D",
"e  c #7584A1",
"r  c #7987A3",
"t  c #7C8AA5",
"y  c #7E8CAA",
"u  c #7D90A9",
"i  c #828FAB",
"p  c #8491AD",
"a  c #8593B1",
"s  c #8996B4",
"d  c #8B9AB4",
"f  c #8E9BB9",
"g  c #919FBA",
"h  c #95A4BE",
"j  c #98A3BF",
"k  c #96A6C0",
"l  c #98A6C2",
"z  c #94A8C1",
"x  c #98A8C1",
"c  c #98A8C2",
"v  c #9AA8C3",
"b  c #9FADC7",
"n  c #9BAAC4",
"m  c #9FADC8",
"M  c #9FACCC",
"N  c #9EAEC9",
"B  c #A0AEC8",
"V  c #A1AFC9",
"C  c #A4AFCB",
"Z  c #A0ADCD",
"A  c #A0AFCB",
"S  c #A5B5CF",
"D  c #A3ADD0",
"F  c #A7B7D1",
"G  c #A7B3D2",
"H  c #A8B6D1",
"J  c #A8B5D5",
"K  c #A8B7D6",
"L  c #AAB7D7",
"P  c #AAB5D4",
"I  c #AAB8D2",
"U  c #ABB9D4",
"Y  c #ADBBD6",
"T  c #AAB9D4",
"R  c #ABB8D8",
"E  c #AFBDDA",
"W  c #ADBAD9",
"Q  c #B0BED9",
"!  c #B1BFDA",
"~  c #B0BDDD",
"^  c #B2BFDF",
"/  c #B1BEDE",
"(  c #B3C0E0",
")  c #B5C2E2",
"_  c #B8C5E5",
"`  c #BDC9E5",
"'  c #BFCCEC",
"]  c #C0CEEA",
"[  c #C3D1EB",
"{  c #C3D1EE",
"}  c #C4D2EC",
"|  c #C4D2ED",
" . c #C5D3ED",
".. c #C6D4EF",
"X. c #C3D2EC",
"o. c #C9D2EF",
"O. c #C4D1F1",
"+. c #C5D2F2",
"@. c #C7D5F0",
"#. c #C6D4F1",
"$. c #C6D6F0",
"%. c #C7D5F2",
"&. c #C7D5F1",
"*. c #CAD3F0",
"=. c #C9D4F0",
"-. c #CBD4F1",
";. c #C8D6F1",
":. c #CAD5F3",
">. c #C8D6F3",
",. c #CBD6F2",
"<. c #CCD7F3",
"1. c #C8D5F5",
"2. c #C9D6F6",
"3. c #CAD7F7",
"4. c #CAD6F3",
"5. c #C8D8F2",
"6. c #CAD8F3",
"7. c #CAD8F5",
"8. c #CBD9F4",
"9. c #CDDAFA",
"0. c #CBD8F8",
"q. c #D3DAF7",
"w. c #D3DCF9",
/* pixels */
"= - O O O O + % # O o & 9 l c k a O = J @.,.@.@.@.@.@.,.,.,.,.,.@.@.@.O.O.9./ = ",
"= > # O + O O O o . . = 0 h l n s o = J  . . . .[  . . . . . . . . .{ O.O.O.J = ",
"= - # O = h ! ! ! r & % & & & - - O % f V V V b b V V V V V V V V V m A M M k - ",
"= = # O # m ..@.@.a ; = % O O o + O # p h k c h h h h k k k k k k h l k k k s - ",
"= = # O % C ,.<.6.s > - # o   .   o # p h h h h h h h h h h h h h h h h h h a = ",
"= = # O + p S F H e - = # o > b s . # p h h h h h h h h h h h h k h h h h k a = ",
"- = # O O t k c c 9 - = + o 3 ,.Y . # p k h h h h h h k k k k k h h h h h k s - ",
"% # # # # y z z k 9 - = # o 3 ,.Y . + p h k k h h h h k k k k k k h h h h k a = ",
"O O % = = u h z z q - = # o 3 ,.Y . + i h k k h h h h k k k k k k h h h h h p # ",
"o o % = = u z z z q - = # o 4 2.E   # p h k k h h h h k k k k k k k h h h h p + ",
"O o % = = u h k k 9 - = # o - a e o # a h k k h h h h k k k k k h k k h h j p O ",
"O o % = = y h k k 0 > = % O o o o O % a k k k k h h h k k k k k k k k h h j p O ",
"O o # = = w a a s 8 > - > > > > - @ % a k k k h h h h h h h h h h h k h h j p O ",
"o o % = = 1 5 5 5 1 - , 8 s s s y # = p k k h h h h h h h h h h h h h h h h p O ",
"o o % = = $ O O O # = 2 h 2.2.2.( % - a k k k h h h h k h h h h h h h h h j p O ",
"o o # % % O O O O + & < y I U R l # - a k k h h h h h k k k k k k h k k h j i O ",
"o O o O O O X X O O O O o O + O O O # y h h k h h h h h h h h h h h h h h h p O ",
"o o O @ + + + O O O + + + + + # # O # p h h h h h h h h h h h h h h k h h h p O ",
"o o > 2 2 2 2 2 2 2 2 2 2 2 1 2 1 o # y h k k h h h h k k k k k h h k h h j p O ",
"o o f ' ,.,.*.*.,.,.@.6.6.,.@.2.^   # i h k k h h h h k k k k k h h k h h j p O ",
"o + a ` @.@.@.@.,.@...,.,.@.@.@.W o # a k k k k k k k k k h h h h h k h h j i O ",
". o w n m m m m A m b m V m m A d   @ : > > > > > > , 1 1 > ; ; > > > ; ; ; ; o ",
"O O 8 h k k k k k k h c k h h h p   o @ @ @ @ @ @ @ = - = # + + + + + + + + o o ",
"O O 8 h k h h k k h h h k h h h p o O O o o # # @ O % = % + . . + + + # . . o O ",
"O O 8 h k k h k k h h k k h h h s % * @ O > n W > o % = * + O 7 U H I h ; O O O ",
"O O 7 g h h h h h h h k k h h h s = - # o , ) 0.2 o % = = + o w  .@...I < O O O ",
"# # 9 h h h h h h h h h h h h h p = = # o > ) 1.1 o % = % + o 2 s f d r > # # # ",
"= = e h h h h h h k h h h h h h a % = # o > _ 1.1 o % = % + O & < < 1 , = = = = ",
"- - e h h h h h k h h k h h h h a = = # O > _ 2.1 o % = % + + % - & = = = = - - ",
"= - e h k k k h k h h k k k k h a = = * % > y a > % e f d s a d f d d y > # % - ",
"= - e h k k h h h h h k k k k h a % = = = - = = - - M 0.0.7.6.7.8.6.6./ 1 O # - ",
"= - e h k k k h k h h k k k k k a = = = % % & = - = k ] ] ] [ ] ] [ ] F , O # - ",
"= - e g k k k h h h h k k k k h a * = % $ $ $ $ + + p I U U U U U U U l ; O # - ",
"= - e g k k k h h h h k k k k h a % - # O O O O O O r k h h h h h h h p ; O # - ",
"= - e h k h k h k h h k k k k k a % = 1 6 6 6 5 % o e h h h h h h h h p - O # - ",
"- - e h k k k k k h h k h k k k a   # G w.w.w.q.2 . w h k k k k h k h p - O # = ",
"= - e f h h h h h h h h h h h h p o * P o.o.<.<.2 o r h h h h h h h h p - O # = ",
"= - 8 y p p p p i i i p p p p p w   * D ` ` ` ` , . w h h h h h h h h p - O # = ",
"= - - - - - - # O O . O O $ + o O O # y l l l h ; . r h h h h h h h h a > O # - ",
"= - - - - = - # O O X O O O O o o o # i n n n c > . r l h h j h h k l a - O # - "
};
